<?xml version="1.0" encoding="utf-8"?>
<!-- Generator: Adobe Illustrator 25.1.0, SVG Export Plug-In . SVG Version: 6.00 Build 0)  -->
<svg version="1.1" id="Layer_1" xmlns="http://www.w3.org/2000/svg" xmlns:xlink="http://www.w3.org/1999/xlink" x="0px" y="0px"
	 viewBox="0 0 500 500" style="enable-background:new 0 0 500 500;" xml:space="preserve">
<style type="text/css">
	.st0{fill:#FFFFFF;stroke:#000000;stroke-width:30;stroke-miterlimit:10;}
</style>
<circle class="st0" cx="250" cy="250" r="200"/>
<g>
	<path d="M270.06,318.35c0,46.56-8.8,79.79-26.4,99.73c-16.44,18.64-36.96,27.92-61.6,27.92c-23.48,0-43.42-9.29-59.84-27.92
		c-17.6-19.95-26.4-53.17-26.4-99.73v-27.92h40.48v37.9c0,30.6,4.67,51.21,14.08,61.83c8.19,9.32,18.18,13.96,29.92,13.96
		c14.08,0,25.22-4.64,33.44-13.96c10.56-11.97,15.84-35.22,15.84-69.81V57.06h40.48V318.35z"/>
</g>
<g>
	<path d="M380.99,82.77c16.98,15.34,25.47,36.81,25.47,64.42s-8.49,49.08-25.47,64.42c-15.87,14.33-37.35,21.47-64.52,21.47h-49.24
		V360.4h-39.05V61.3h88.29C343.63,61.3,365.12,68.46,380.99,82.77z M267.23,90.44v113.51h39.05c20.37,0,36.21-5.1,47.54-15.34
		c10.19-9.2,15.28-23.01,15.28-41.41s-5.09-32.21-15.28-41.41c-11.33-10.21-27.17-15.34-47.54-15.34H267.23z"/>
</g>
</svg>
