<?xml version="1.0" standalone="no"?>
<!DOCTYPE svg PUBLIC "-//W3C//DTD SVG 20010904//EN"
 "http://www.w3.org/TR/2001/REC-SVG-20010904/DTD/svg10.dtd">
<svg version="1.0" xmlns="http://www.w3.org/2000/svg"
 width="700.000000pt" height="700.000000pt" viewBox="0 0 700.000000 700.000000"
 preserveAspectRatio="xMidYMid meet">
<metadata>
Created by potrace 1.11, written by Peter Selinger 2001-2013
</metadata>
<g transform="translate(0.000000,700.000000) scale(0.100000,-0.100000)"
fill="#000000" stroke="none">
<path d="M3289 6505 c-2 -2 -33 -6 -69 -9 -65 -6 -207 -24 -245 -31 -22 -4
-107 -22 -140 -29 -87 -19 -338 -92 -360 -105 -5 -3 -12 -6 -15 -6 -35 -4
-335 -143 -454 -211 -146 -84 -348 -226 -464 -327 -94 -81 -317 -312 -391
-406 -316 -398 -515 -832 -610 -1331 -20 -105 -23 -128 -38 -270 -16 -147 -8
-570 12 -670 3 -14 7 -45 10 -70 3 -25 7 -52 10 -60 2 -8 6 -31 9 -50 17 -108
75 -316 135 -480 108 -298 327 -671 535 -910 63 -72 279 -287 333 -330 30 -25
61 -50 67 -55 28 -26 139 -107 221 -162 151 -100 317 -189 515 -276 104 -45
425 -145 520 -162 25 -4 195 -33 236 -40 126 -20 523 -27 684 -12 46 5 87 10
90 12 3 1 30 5 60 9 30 3 78 11 105 16 28 5 61 11 75 14 147 25 454 126 629
208 47 22 95 44 106 49 11 5 27 13 35 19 8 5 53 30 100 56 143 80 356 229 475
333 84 73 313 310 378 391 345 430 564 943 642 1500 27 194 27 585 0 780 -3
19 -7 51 -10 70 -3 19 -7 46 -10 60 -3 14 -8 41 -11 60 -10 60 -74 302 -101
380 -65 191 -162 403 -264 575 -49 83 -170 262 -209 309 -10 11 -52 62 -93
111 -91 109 -282 296 -397 388 -94 75 -288 210 -365 253 -28 15 -66 36 -85 47
-42 24 -169 87 -225 112 -22 9 -49 21 -60 26 -84 36 -325 118 -395 133 -14 3
-65 15 -115 26 -79 17 -135 28 -185 35 -8 1 -35 5 -60 9 -25 3 -63 9 -85 11
-49 7 -521 16 -526 10z"/>
</g>
</svg>
