<svg id="Layer_1" xmlns="http://www.w3.org/2000/svg" viewBox="0 0 48 48"><polygon points="14.77 15.34 13.33 20.26 11.89 15.34 7.4 15.34 10.61 23.52 7.29 32.66 11.89 32.66 13.33 27.42 14.77 32.66 19.35 32.66 16.03 23.52 19.23 15.34 14.77 15.34"></polygon><polygon points="27.62 15.34 26.18 20.26 24.74 15.34 20.25 15.34 23.46 23.52 20.13 32.66 24.74 32.66 26.18 27.42 27.62 32.66 32.2 32.66 28.87 23.52 32.08 15.34 27.62 15.34"></polygon><polygon points="32.98 15.34 32.98 32.66 40.72 32.66 40.72 28.55 37.19 28.55 37.19 15.34 32.98 15.34"></polygon></svg>